{"title":"Chronicle 2012 TS NEW SOURCE XviD Feel-Free","uid":7031900,"size":797299574,"categoryP":"video","categoryS":"movies","magnet":"?xt=urn:btih:5285572def49e0f0dd0ee3c06ad9ba7cb6f8b883&amp;dn=Chronicle+2012+TS+NEW+SOURCE+XviD+Feel-Free&amp;tr=udp%3A%2F%2Ftracker.openbittorrent.com%3A80&amp;tr=udp%3A%2F%2Fopen.demonii.com%3A1337&amp;tr=udp%3A%2F%2Ftracker.coppersurfer.tk%3A6969&amp;tr=udp%3A%2F%2Fexodus.desync.com%3A6969","seeders":0,"leechers":1,"uploader":".BONE.","files":10,"time":1329245421,"description":"Genre: Action | Drama | Sci-Fi\nLanguage:English\n &lt;a href=&quot;\nhttp://www.imdb.com/title/tt1706593/&quot; rel=&quot;nofollow&quot; target=&quot;_NEW&quot;&gt;\nhttp://www.imdb.com/title/tt1706593/&lt;/a&gt;\n\nSource:NoZGT/MiSTERE Thanks!\nEncoder:Tony\n\nFormat : AVI\nFormat/Info : Audio Video Interleave\nFile size : 759 MiB\nDuration : 1h 15mn\nOverall bit rate : 1 400 Kbps\n\nVideo\nID : 0\nFormat : MPEG-4 Visual\nFormat profile : Advanced Simple@L5\nFormat settings, BVOP : 1\nFormat settings, QPel : No\nFormat settings, GMC : No warppoints\nFormat settings, Matrix : Default (H.263)\nCodec ID : XVID\nCodec ID/Hint : XviD\nDuration : 1h 15mn\nBit rate : 1 200 Kbps\nWidth : 640 pixels\nHeight : 272 pixels\nDisplay aspect ratio : 2.35:1\nFrame rate : 25.000 fps\nColor space : YUV\nChroma subsampling : 4:2:0\nBit depth : 8 bits\nScan type : Progressive\nCompression mode : Lossy\nBits/(Pixel*Frame) : 0.276\nStream size : 650 MiB (86%)\nWriting library : XviD 1.2.1 (UTC 2008-12-04)\n\nAudio\nID : 1\nFormat : AC-3\nFormat/Info : Audio Coding 3\nMode extension : CM (complete main)\nCodec ID : 2000\nDuration : 1h 15mn\nBit rate mode : Constant\nBit rate : 192 Kbps\nChannel(s) : 2 channels\nChannel positions : Front: L R\nSampling rate : 48.0 KHz\nBit depth : 16 bits\nCompression mode : Lossy\nStream size : 103 MiB (14%)\nAlignment : Aligned on interleaves\nInterleave, duration : 40 ms (1.01 video frame)\nInterleave, preload duration : 512 ms\n\n\nPlot:\nThree high school friends gain superpowers after making an incredible discovery. Soon, though, they find their lives spinning out of control and their bond tested as they embrace their darker sides\n","torrent":{"xt":"urn:btih:5285572def49e0f0dd0ee3c06ad9ba7cb6f8b883","amp;dn":"Chronicle+2012+TS+NEW+SOURCE+XviD+Feel-Free","amp;tr":["udp%3A%2F%2Ftracker.openbittorrent.com%3A80","udp%3A%2F%2Fopen.demonii.com%3A1337","udp%3A%2F%2Ftracker.coppersurfer.tk%3A6969","udp%3A%2F%2Fexodus.desync.com%3A6969"],"infoHash":"5285572def49e0f0dd0ee3c06ad9ba7cb6f8b883","infoHashBuffer":{"type":"Buffer","data":[82,133,87,45,239,73,224,240,221,14,227,192,106,217,186,124,182,248,184,131]},"announce":[],"urlList":[]}}